<?xml version="1.0" encoding="UTF-8"?>
<svg version="1.1" viewBox="0 0 1664 1696" width="104" height="106" xmlns="http://www.w3.org/2000/svg">
<path transform="translate(1181,30)" d="m0 0h175l15 2 8 4 8 5 16 7 16 12 70 70 6 10-1 15-2 13v14l7 9 11 9 13 5 13 1 15 4 10 7 12 5h28l14 4 7 6 5 5 8 7 3 5 8 5 7 8-2 4-8 6-7 5v9l1 10-2 7 1 2 1 19-1 5v33l-11 9-5 3-1 4 4 15 2 7-3 9-5 6-14 9-16 8-25 13-18 8-14 7-4 1-23 1-78 1-21 2-6 3-8 10-10 9-8 7-8 8 1 5 1 3v35l-1 91-2 46 13 7 4 4 1 2v54l-1 175-10 7-5 3h-2l2 14v21l-2 4-11 7-4 3 1 14 1 8v9l-3 5-15 15 2 50-1 12-3 5-13 10-1 3 1 5v41l-1 100-15 12-1 97 12 12 4 7v32l-1 26 6 9 10 11 11 9 9 10 5 4 7 8 10 6 15 6 13 9 6 5 4 12 1 11 4 2 10 10 4 7v10l-4 6-12 13-12 8-8 1-7-1h-12l-5 3-9 8-8 4-12 2h-9l-13-5-10-10-4-2h-16l-14 2-5-1h-7l-5 2-9-3-8-1-8-8-7-8-28-28-5-6-5-5-3-7 3-15v-8l-4-6-12-10-2-5v-9l1-17-4-8-10-8-2-1-1-3 1-254-2-5-8-7-6-5-1-5v-12l1-23 2-3v-6l-4-5h-6l-6 4-8 6-9 3-29 3-3 1v9l1 5-7 11-8 7-3 3 2 4-1 50-1 249 3 5 5 5 5 10 4 12 6 9 9 10 32 32 8 7 5 6 4 6v64l-6 4-19 2-5 2-4 9-5 3-50 1h-79l-7-1-11-15-39-39-1-3v-25l1-18-6-8-8-6-3-4v-42l-1-385h-14l-1-1-1-75-1-2h-13v22l-2 45-1 10-8 8-14 9-3 1h-21l-12-3-5-4-7-8-3-2h-14l-8 2-11 1-3-3-7-1 1 4-2 3-1-7-6-4-7-6-6-3h-13l-18-6-38-19-12-7-12-3h-7l-1 4 3 7 9 10 18 18 11 7 17 9 16 12 7 8 3 5-1 7-4 5-8 7-97 97-8 7-11 12-2 3-1 19 1 4-1 45v23l1 19 4 7 5 8 6 15 6 10 9 11 8 7 23 23 10 6 18 8 14 10 5 6 2 4 1 6 1 44-2 4-2 1-28 1h-141l-6-5-11-17-6-13-14-28-5-13-8-13-3-7v-18l1-9-3-9-5-12-7-7-2-7v-9l-3-16-5-10-7-9-1-11-1-29-5-13-7-7-3-8v-8l-1-4v-12l1-8v-6l6-10 9-10 17-17 1-5-1-4 5-10 9-10 17-17 2-4 1-9-2-7v-8l6-11 8-9 3-6-2-10 1-14-1-1-2-9-1-2-6 1-15 16-8 8-7 8-5 4-1 8v6l-10 13-9 9-5 6-6 5-7 8-7 7h-2l-2 4-7 7-8 7-5 6h-2l-1 3-8 7-11 12-32 32-8 7-6 7-5 4-10 25-5 7h-2l-2 16-1 17-1 53v43l1 18 5 8 14 15 28 28 8 7 6 8 2 7 1 44-4 5-11 1h-160l-5-5-6-10-6-9-5-31-4-8-7-8-1-3-1-17v-250l5-9 17-16 9-9 2-4v-8l4-9 7-8 5-4 2-3h2l2-4 11-11h2l2-4 9-11 6-18 7-11 3-5 3-24 4-10 7-11 2-3 2-26-1-8 2-25 5-10 7-9 1-2 1-14v-16l1-16 1-8 1-7 5-9 7-9 2-32 1-12 6-12 6-9 3-17 2-15 6-9 6-5-1-7-8-1h-8l-7-2-10-1-9-3-13-9-10-1-4 1-7-3h-8l-11-8-7-6-7 1-12-6-15-14-10-9-4-4-6 1-13-7-12-11-12-12-10-13-4-9-1-6-9-11-8-9-9-11-4-8-4-12-7-11-5-14-2-10-1-11-6-9-3-3-2-6-1-8-1-30 1-86 2-8 5-3h16l5 5 2 5 2 20 3 12 8 13 5 24 1 9 6 10 13 26 12 14 3 3v2l4 2v2l4 2 7 8 31 31 2 1v2l4 2 14 14 10 8v2l20 10 9 4 11 9 8 2 5 1 4-2 11 1 9 4 8 9 13 2h50l63-1 10-4 10-7 17-6 15-9 18-8 13-9 8-3 8-1h17l5-1 14-1 7-6 4-5 44-3 90-2 4-2 6-9 2-1 37-2 50-1 11-1 8-5 4-5 2-1 28-4 8-3 16-9 11-4 17-10 17-7 12-8 17-16 26-26 8-7 12-12 1-16 4-9 3-3 7 1 12 7 7 7 9 7 4 5 9 4 6 3h10l20 5 5 4 4 4 10 2h6l10-7 17-6 10-5 13-10 38-38 4-6 1-6-2-5v-7l2-6v-8l-3-7 1-6 3-5 8-5 4-8v-21l1-13 2-4-1-9-5-6-6-3-4-3-1-3-1-15v-182l15-14 4-6-1-7-2-4-5-2-6 1-8 7-13 12-7 7-3 4h-2v2l-5 5-8 7-6 3-1 2v6l1 2-1 162v24l3 5 10 9 2 4 1 8v18l-3 9-12 9v9l1 16-3 13-7 9-13 8-11 3-45 1-4-2-10-2-8-6-10-6-6-1-9-5-10-8-27-27-10-6-9-2-11-6-10-9-4-4v-2l-4-2-14-14-3-6v-12l-7-8-4-5-3-6-2-12 1-17v-7l1-2-1-22-1-12 5-10 36-36 8-7 60-60 10-8 19-9 12-7 23-11 17-9 16-8 23-11 11-6 10-5 7-2z"/>
<path transform="translate(1056,1178)" d="m0 0h2v93h1v199l-3 4-4-1-4-5-3-9-2-25-1-24v-71l2-69 4-72 3-9 4-9z" fill="#373737"/>
<path transform="translate(1374,688)" d="m0 0 5 3 2 4v54l-1 175-10 7-5 3h-2l1 9-2 2-1 6 1 12 1 5-2 3-7 2-4 1v-3h-2v-6l3-6 7-28 4-14 3-14 2-18 2-36v-64l-3-72-1-20h2v-2z" fill="#3A3A3A"/>
<path transform="translate(153,1232)" d="m0 0 3 3v286l-4 1-6-7-1-3-1-17v-250l5-9z" fill="#373737"/>
<path transform="translate(703,1150)" d="m0 0 7 1-1 7-4 5-8 7-97 97-8 7-11 12-2 3-1 23-2-3-1 16-1 37-1 10-2 2-4-5-2-17v-30l3-19 4-8 2-8 2-5h2l1-6 6-8 10-11 7-8 12-12h2v-2l8-7 55-55 5-6 8-7 6-7z" fill="#F8F8F8"/>
<path transform="translate(442,1135)" d="m0 0h4l1 2v6l-8 8-8 7-62 62-7 8-28 28-7 8-9 10-3 6-5 4-3 6-6 10-9 16-5 13-3 16-2 22v30l1 35 4 28 4 12 6 12 1 7-5-5-7-20-6-25-4-32-1-22 1-20 4-28 4-17 6-17 11-18 12-17 12-13 7-8 12-13 7-7 7-8 55-55 7-8 14-15 6-7z" fill="#F8F8F8"/>
<path transform="translate(1310,1134)" d="m0 0h3l1 9 1 5-1 110-1 2-6 1v2h-8l-2-2v-18l5-65 3-31 3-11z" fill="#383838"/>
<path transform="translate(863,1022)" d="m0 0 5 1 4 2h6l2 2v3l-4 1h-5l-3-2-1 5-3 2-1 3-2 74h3v6l-8 8-14 9-3 1h-21l-12-3-5-4 1-5h12l16 1 19-1 1-21h2v-22l2-41 2-5-1-1 1-7z" fill="#060606"/>
<path transform="translate(148,1238)" d="m0 0h1l1 9v71l-1 103v95l-3-1-1-3-1-17v-250z" fill="#090909"/>
<path transform="translate(1618,395)" d="m0 0h2l1 4-4 7-7 7-20 15-12 7-3 3-16 8-13 6-13 4-10 3-10 1-30-2h-54l-2-2 4-2h81l25-7 17-8 16-9 33-21 12-10z" fill="#F2F2F2"/>
<path transform="translate(1389,468)" d="m0 0h2l-2 4-6 7-8 7-7 7-5 7-4 10v8l1 3 2 65-1 24-1 10h-3v-3l-1 4 3 1-4 2-1-16-1-2-1-19-1-6v-56l2-11 4-12 9-14 13-13z" fill="#E2E2E2"/>
<path transform="translate(1366,495)" d="m0 0 2 3-4 4-1 5 1 33v62l-1 38-1 17-2 12-1 2-3-1-2-12-2-19-3-38v-63l2-21h1v64l1 7 1 18 1 7 1 10 2-1-2-1v-5l2 2-1 2h3l-1-3 1-10 1-25-2-61-1-5v-7l6-12z" fill="#363636"/>
<path transform="translate(707,1151)" d="m0 0h3l-1 7-4 5-8 7-97 97-8 7-11 12-2 3-1 23-2-3-1 16-1 37-1 10-2 2-4-5-2-17v-30l3-19 4-8 2-8 2-5 1 2 8-6 28-28h2l2-4h2l1-3 8-7 31-31 2-3h2l2-4 4-4h2l2-4 28-28 5-7z" fill="#2B2B2B"/>
<path transform="translate(340,1522)" d="m0 0h3v2l5 1 4 6 1 5 1 44-4 5-11 1h-90v-1l83-1-1-2-4-1-4 2h-3v-2h-2v-2h2v-2l13-2 7-6h2l-1-27-1-9z" fill="#080808"/>
<path transform="translate(306,1290)" d="m0 0 1 2-8 19-4 5h-2l-2 16-1 17-1 53v43l1 18 3 12-3-3-5-17-3-23-1-35v-30l2-22 3-16 6-15 13-23z" fill="#0E0E0E"/>
<path transform="translate(961,1653)" d="m0 0 40 1h39l65-1v4l-2 2-12 1h-38l-64 2-18 1-9-2-1-1z" fill="#393939"/>
<path transform="translate(1060,1489)" d="m0 0 5 2 5 8 3 10h2l6 10 11 12 31 31 8 7 5 6 4 6v6l-5-1-10-9-14-15-8-7-7-7-9-11-7-10-5-8-6-11-7-12-2-3z" fill="#DEDEDE"/>
<path transform="translate(1148,143)" d="m0 0 4 2 1 2v74l-1 5-3-2-2 1-2-15-1 6h-1l-1-10v-40l1-20 1-2z" fill="#E3E3E3"/>
<path transform="translate(1155,124)" d="m0 0h1l-1 162-1 6h-1l-1-51h-2l-1 6h-4l-3-4-2-7v-49l1-28 1-12h1v62l3 1 2 14 2-2 1 2 1-3 1-74z" fill="#373737"/>
<path transform="translate(1107,1655)" d="m0 0 1 4-4 5-3 1-50 1h-79l-7-1-2-4 11 1 41-2 38-1h44l7-2z" fill="#080808"/>
<path transform="translate(1378,691)" d="m0 0 3 4v54l-1 175-10 7-5 3h-3l2-4 11-8 3-2v-15l-1-1v-196z" fill="#060606"/>
<path transform="translate(1304,1377)" d="m0 0 5 1 6 8 1 2v32l-1 19h-1l-1-6-2 4-4-5-5-16-1-18-1-6v-10z" fill="#343434"/>
<path transform="translate(447,1138)" d="m0 0 2 4-6 9-11 11-5 6-6 5-7 8-7 7h-2l-2 4-7 7-8 7-5 6h-2l-1 3-8 7-11 12-32 32-8 7-4 3 2-4 12-13 9-10 27-27 7-8 63-63 8-7z" fill="#161616"/>
<path transform="translate(859,1040)" d="m0 0 2 1v23l-1 51-5 9-4 2v-22l2-46 1-14 2-3z" fill="#E4E4E4"/>
<path transform="translate(1048,1253)" d="m0 0 2 1v30l3 1 1 8v60h-3v-3h-2v2h-2l-1-3v-74l1-21z" fill="#E3E3E3"/>
<path transform="translate(1141,1127)" d="m0 0 4 1 4 5 2 8 1 11v28l-10 1-3-3-1-5v-12l1-23 2-3z" fill="#0E0E0E"/>
<path transform="translate(280,1339)" d="m0 0 1 4h2l1-2-2 26v30l1 35 4 28 4 12 6 12 1 7-5-5-7-20-6-25-4-32-1-22 1-20z" fill="#E4E4E4"/>
<path transform="translate(1474,123)" d="m0 0 6 4 8 7 5 2 2 4-1 15-2 13-1 13-4-2-6-9-1-3v-7l1-4v-8l-2-4-2-15-3-4z" fill="#373737"/>
<path transform="translate(1633,289)" d="m0 0h2v16h-1l-1 8v13l1 25-1 8h-2v3l-7 5h-3l-1-4 4-22 1-10v-17l7-23z" fill="#464646"/>
<path transform="translate(882,1050)" d="m0 0h1l2 7 6 16 2 26 1 2 1 10v4l-3 1h-9l-1 3z" fill="#3C3C3C"/>
<path transform="translate(669,1499)" d="m0 0 5 1 8 6 3 8 1 12v28l1 7-2 4-3 2-5 1h-7l-3-2v-3l4-2 8-11 3-7-2-13-3-15-3-7-5-7z" fill="#E3E3E3"/>
<path transform="translate(1326,1046)" d="m0 0h2l2 6v15l-2 29-6 6-5-1-2-5 4-21 2-18 4-10z" fill="#E3E3E3"/>
<path transform="translate(1160,320)" d="m0 0 5 1 4 5 2 10v18l-3 9-2 2h-6l-1-4h-2v-8l2-9h2l1-4-3-1-2-6v-8z" fill="#E2E2E2"/>
<path transform="translate(575,1289)" d="m0 0 1 4-3 35-1 40-2 2-3-4-2-14v-30l3-19z" fill="#E3E3E3"/>
<path transform="translate(748,591)" d="m0 0h33v1l-27 6-7 1h-21v2l-13 2h-8l1-5 5-5z" fill="#101010"/>
<path transform="translate(1072,79)" d="m0 0 2 1 1 3-11 7h-3l-1 3-17 9-10 7-14 8h-2v2l-6 2 1-4 10-10 10-8 19-9 12-7z" fill="#0A0A0A"/>
<path transform="translate(1211,243)" d="m0 0h3l2 5 1 25v13l-3 12-5 1-2-2v-17l1-7 1-1v-28z" fill="#373737"/>
<path transform="translate(118,545)" d="m0 0 7 6 9 10 7 8 41 41 8 11v2l-5-2-6-5v-2l-3-1-7-8-21-21-7-8-14-17-9-12z" fill="#E4E4E4"/>
<path transform="translate(1106,1125)" d="m0 0h20l-2 2-12 3-22 2-12 3-5 5-4 20-7 6-4-1v-7l11-21h2v-2l10-5 11-3z" fill="#E3E3E3"/>
<path transform="translate(903,1494)" d="m0 0 4 1 1 1 3 42v14h-5l-3-4-1-15v-36z" fill="#373737"/>
<path transform="translate(1079,1518)" d="m0 0 44 44 8 7 5 6 4 6-1 4-4-5-8-7-14-12-13-14-9-11-12-16z" fill="#0B0B0B"/>
<path transform="translate(961,1653)" d="m0 0 32 2h70v2l-19 1-7 1-4-1-12 1-28 1-21 2h-7l-4-2z" fill="#E3E3E3"/>
<path transform="translate(1352,35)" d="m0 0h15v2l6 1 10 4 2 1v2l9 3 10 6 13 11 3 4-4-2-10-7-14-9-7-3-5-3-21-3-12-1-5 1h-7v-3l7-2z" fill="#3A3A3A"/>
<path transform="translate(264,993)" d="m0 0 6 1v9l-2 8-2 23-2 9-5 13h-1l1-13 1-20v-24z" fill="#373737"/>
<path transform="translate(1374,688)" d="m0 0 4 4-1 13-1 5v18l-1 8h-4l-2-16-1-13-3-14h2v-2z" fill="#E3E3E3"/>
<path transform="translate(623,1061)" d="m0 0 9 1 10 4 15 7 10 4 7 5v2l-6-1-18-10-12-6-12-3-5 2-1 2v7l6 11 10 13 9 11-1 2-8-7-9-10-8-11-5-12 1-5 6-5z" fill="#E3E3E3"/>
<path transform="translate(958,518)" d="m0 0 1 3-4 4h-2l-1 3-22 13-32 16-27 10-5 1 3-3 10-4 16-8 8-5 16-6 5-2 12-7 11-8 7-4z" fill="#363636"/>
<path transform="translate(1350,1605)" d="m0 0h12v4l-9 4-6 1h-28l-4-4v-3l24-1z" fill="#E3E3E3"/>
<path transform="translate(500,1537)" d="m0 0 7 6 6 7 14 10 11 1 11 3v2l-5 1h-23l-6-5v-3l-4-2-9-13-2-4z" fill="#3E3E3E"/>
<path transform="translate(1318,1459)" d="m0 0 4 1 5 4 7 8 8 7 12 11 3 5-3 1-8-4-3-3-7-4-2-4h-2l-9-11-5-8z" fill="#3B3B3B"/>
<path transform="translate(425,1249)" d="m0 0 3 2v12l-1 3-1 22 3 13v8l-5 1-3-3v-15l1-14v-13l-2-5-1-2z" fill="#484848"/>
<path transform="translate(1124,1126)" d="m0 0 2 1-7 6-11 4-29 3-7 2 2-5 6-4 19-3 19-2z" fill="#0D0D0D"/>
<path transform="translate(1194,438)" d="m0 0h2l-1 5-6 8-12 12-6 3-4 1-6 8-13 8h-3v-2l11-9 5-5 5-4 3-1 5-6 8-7h2v-2l8-7z" fill="#565656"/>
<path transform="translate(931,321)" d="m0 0h5l11 9 12 13 12 12 4 6v2l-5-2-3-2v-2l-4-2-7-8-7-7-15-11-4-4z" fill="#ddd"/>
<path transform="translate(679,1503)" d="m0 0 4 2 4 5 2 4 1 6 1 44-2 4-2 1h-17v-1l12-2 3-1 1-8-1-3v-28l-2-16z" fill="#191919"/>
<path transform="translate(1141,1127)" d="m0 0 4 1 4 5 2 8 1 11v28h-7l-1-5 2-17v-11l-1-9-4-9z" fill="#E3E3E3"/>
<path transform="translate(597,1442)" d="m0 0 4 2 12 12 10 13 7 8 2 5-6-1-18-18-8-11-3-7z" fill="#E3E3E3"/>
<path transform="translate(1431,454)" d="m0 0h85l-4 3v2l-29-1h-54l-2-2z" fill="#E3E3E3"/>
<path transform="translate(344,1566)" d="m0 0 4 4 2 3v6l-4 4h-14l-5-2-4 2h-3v-2h-2v-2h2v-2l13-2z" fill="#E3E3E3"/>
<path transform="translate(1310,1203)" d="m0 0h1l1 24 1 5 1 26-1 2-6 2h-7l-2-3v-9l1-2h3l1 9 4-1v-12l1-12 1-1z" fill="#E3E3E3"/>
<path transform="translate(1519,451)" d="m0 0 3 1-10 3h-19l-62-1-1 2-1 1h54l30 2v1l-89-1 2-4 4-2h75z" fill="#373737"/>
<path transform="translate(117,673)" d="m0 0 5 2 13 16 6 7 8 7 6 5 2 4v3l-6-1-9-11-16-17-9-11z" fill="#E2E2E2"/>
<path transform="translate(1194,69)" d="m0 0h3l-1 4-16 16-11 9-8 7-5 1 2-5 17-16 7-6 11-9z" fill="#F7F7F7"/>
<path transform="translate(1380,1507)" d="m0 0 6 1 11 7 10 8 4 12-1 3v-2l-4-2-2-2v-3h-2v-2l-4-2-5-5-5-2-10-9z" fill="#161616"/>
<path transform="translate(164,1559)" d="m0 0 7 4 10 7 9 4 15 3 9 4-4 2-13-2h-2l-7-1-14-8-7-6-3-5z" fill="#E2E2E2"/>
<path transform="translate(855,1062)" d="m0 0 2 3v17h2v35l-2 4h-2l-2-10 1-35z" fill="#FDFDFD"/>
<path transform="translate(1362,506)" d="m0 0 3 1 1 3v35l-1 91-2 4-1-3 1-35v-62z" fill="#0C0C0C"/>
<path transform="translate(420,1259)" d="m0 0h1l2 6v13l-1 14v15l2 4-5-5-2-6v-8l-1-4v-12l1-8v-6z" fill="#090909"/>
<path transform="translate(592,608)" d="m0 0h12v1l-7 1-7 3-18 5h-6v2h-7v-3l6-7z" fill="#0F0F0F"/>
<path transform="translate(1537,211)" d="m0 0 10 2 8 3h5l13 6h7v2l4 1 9 3 21 5 7 4-3 1-20-6-22-6-19-6-14-3v-2l-5-2z" fill="#3F3F3F"/>
<path transform="translate(1359,938)" d="m0 0h2v3h-2v13l2 11-1 5-7 4h-3v-3h-2v-6l5-10 5-16z" fill="#E3E3E3"/>
<path transform="translate(395,675)" d="m0 0 4 1-9 4-19 2h-20l-9-3v-2l43-1z" fill="#373737"/>
<path transform="translate(1421,1558)" d="m0 0 3 1 3 5v9l-4 6-8 8-10 6-5 2-3-1 8-6 8-7 4-6 2-1 2-7h2z" fill="#E3E3E3"/>
<path transform="translate(340,1522)" d="m0 0h3v2h3l1 2v13l-1 13v8l1 8-3-1-2 1-1-26-1-9z" fill="#373737"/>
<path transform="translate(1209,371)" d="m0 0 6 2 4 7-2 9-5 12-5 5 1-6 2-5v-6l-2-6-1-7z" fill="#373737"/>
<path transform="translate(1191,1535)" d="m0 0 4 1 5 4 9 17 4 5v2l-4-1-12-11-4-5-2-5z" fill="#3E3E3E"/>
<path transform="translate(863,1022)" d="m0 0 5 1 4 2h6l2 2v3l-4 1h-5l-3-2-1 5-7 4-5-3 1-7z" fill="#E3E3E3"/>
<path transform="translate(274,769)" d="m0 0 11 1 30 6 4 2v1h-18l-19-3-8-4z" fill="#E3E3E3"/>
<path transform="translate(1474,123)" d="m0 0 6 4 11 9 1 2-1 9-1 1h-5l-6-7-2-12-3-4z" fill="#E3E3E3"/>
<path transform="translate(508,629)" d="m0 0h5l-2 1-1 3-4 2h-4v2l-18 6-21 10-5 2-4-1 19-11 13-5 6-2 8-3z" fill="#313131"/>
<path transform="translate(771,591)" d="m0 0h10v1l-27 6-7 1h-21v2l-13 2h-8v-2l2-1 25-3h7v-2z" fill="#3A3A3A"/>
<path transform="translate(1167,326)" d="m0 0h2l2 10v18l-3 9-4 2 3-5v-2l-3 1-3-3-1-5 2-6h2v-4l2-1 2-7z" fill="#373737"/>
<path transform="translate(802,1125)" d="m0 0h12l16 1 15-1-1 4-8 2h-8-4l-1-2-10 3-9-2-2-1z" fill="#E3E3E3"/>
<path transform="translate(703,1150)" d="m0 0 4 1-1 5-7 9-14 14-1-3 7-8-1-2-3-1 13-13z" fill="#E3E3E3"/>
<path transform="translate(1341 1e3)" d="m0 0 3 1 2 10-1 6-8 5h-3l-2-7 6-12z" fill="#E3E3E3"/>
<path transform="translate(1013,387)" d="m0 0 5 2 5 5 18 12 1 4h-6l-11-7-3-3-5-3-5-5z" fill="#DFDFDF"/>
<path transform="translate(1147,403)" d="m0 0 7 1 1 3-14 8-8 7-5 5h-4l1-5 3-3h3v-2h2v-2l7-6 5-5z" fill="#E3E3E3"/>
<path transform="translate(1305,1378)" d="m0 0 5 3 2 4v3h-2l2 8v4 6l-3-1v-2h-2v-4l-4-5-2-6 1-7z" fill="#E3E3E3"/>
<path transform="translate(98,504)" d="m0 0 4 5 6 10 7 16 4 8 4 4-1 2-4-3-4-4-7-14-5-6-3-8z" fill="#343434"/>
<path transform="translate(1372,738)" d="m0 0h2l1 8-1 64-2 1-1-42v-27z" fill="#E3E3E3"/>
<path transform="translate(932,327)" d="m0 0 9 6 11 9 15 15v2l4 2 4 3-2 1-12-7-11-11v-2l-4-2-14-14z" fill="#1C1C1C"/>
<path transform="translate(203,1171)" d="m0 0h3l-1 4-7 9-15 15-5 1 1-6 10-9 8-7z" fill="#F6F6F6"/>
<path transform="translate(1013,450)" d="m0 0 7 3 7 8 8 5 5 2 1 4-3 1-8-5-14-8-5-5v-4z" fill="#E3E3E3"/>
<path transform="translate(67,417)" d="m0 0 7 1 3 5v13l-5 1-5-10-2-8z" fill="#F8F8F8"/>
<path transform="translate(1153,407)" d="m0 0 1 3-7 9-13 8-6 2h-4v-2l7-3 7-8 10-6z" fill="#0D0D0D"/>
<path transform="translate(1356,1611)" d="m0 0h4l-2 4-10 3-7 1h-9l-11-4v-1l26-1z" fill="#141414"/>
<path transform="translate(1093,1653)" d="m0 0h12v4l-2 2-12 1h-7l-1-2-13-1 2-2 17-1z" fill="#E3E3E3"/>
<path transform="translate(1430,79)" d="m0 0 4 2 15 15 4 3v2l4 2 13 13-1 3-7-6v-2l-4-2v-2l-4-1v-3l-4-1-17-17z" fill="#898989"/>
<path transform="translate(575,1294)" d="m0 0h1l-1 31-1 37-1 10-2 2-4-5 1-3 2 3 1-1 1-40 2-27z" fill="#373737"/>
<path transform="translate(689,1091)" d="m0 0h8l16 3 2 4-10 3-10-4-6-5z" fill="#E6E6E6"/>
<path transform="translate(1330,1035)" d="m0 0 2 4-1 44-2 14-3 3-2-1 3-3 2-29v-15l-1-6-4 2 1-5 3-5h2z" fill="#373737"/>
<path transform="translate(1633,304)" d="m0 0 3 1 1 19-1 5v19l-2 2-1-1-1-27v-9z" fill="#090909"/>
<path transform="translate(1058,1176)" d="m0 0 3 4-1 50-1 18h-1z" fill="#0D0D0D"/>
<path transform="translate(259 1e3)" d="m0 0h2v22l-1 20-3 1v-7l-1-8 2-25z" fill="#0A0A0A"/>
<path transform="translate(1080,482)" d="m0 0 7 1v6l-1 2-5 1-10-2-2-5 2-2z" fill="#3E3E3E"/>
<path transform="translate(1417,1553)" d="m0 0 4 2 3 4-2 1 1 7h-2l-1 7-5 4v-16z" fill="#393939"/>
<path transform="translate(857,1037)" d="m0 0h6l-2 76h3v6l-1-3-4 1 1-53v-23l-4 1-2 2 1-4z" fill="#373737"/>
<path transform="translate(83,465)" d="m0 0 7 1 3 7 1 7-2 3-4-2-5-10z" fill="#E5E5E5"/>
<path transform="translate(1194,438)" d="m0 0h2l-1 5-6 8-12 12-2-1 4-5-3-1 12-12z" fill="#383838"/>
<path transform="translate(943,195)" d="m0 0h2l-2 4-8 7-5 5-11 10-3 2-3-1 9-10 13-10z" fill="#373737"/>
<path transform="translate(438,1353)" d="m0 0 4 2 4 11 1 7-2 2-6-5-1-4z" fill="#E3E3E3"/>
<path transform="translate(592,1427)" d="m0 0 3 4 7 11 7 8 6 5-2 3-7-8-7-7-2-1 4 10-1 2-5-10-4-11v-5z" fill="#2D2D2D"/>
<path transform="translate(707,1151)" d="m0 0h3l-1 7-4 5-8 7-19 19h-2l2-4 23-23 5-7z" fill="#1C1C1C"/>
<path transform="translate(738,1107)" d="m0 0h8l10 2 2 3-4 4h-7l-5-3-4-4z" fill="#E4E4E4"/>
<path transform="translate(332,1583)" d="m0 0h14l4 2-11 1h-90v-1l83-1z" fill="#373737"/>
<path transform="translate(1038,1658)" d="m0 0m-8-1h6l2 3-49 2-18 1 1-2 24-2 25-1z" fill="#373737"/>
<path transform="translate(1051,1202)" d="m0 0h1v36l-1 9-1 6-2-1v-16l1-21z" fill="#E3E3E3"/>
<path transform="translate(510,1552)" d="m0 0 10 5 6 4 9 2v2l-2 1h-11l-8-7z" fill="#E1E1E1"/>
<path transform="translate(853,1082)" d="m0 0h1v29l2 12-3 3-2-1v-21l1-21z" fill="#E3E3E3"/>
<path transform="translate(1163,341)" d="m0 0 1 4-2 1-1 8 4 4h2l1-2-1 6-3 3-5-1v-3h-2v-8l2-9z" fill="#E3E3E3"/>
<path transform="translate(1061,1152)" d="m0 0 8 2v6l-7 6-4-1v-7z" fill="#F8F8F8"/>
<path transform="translate(271,768)" d="m0 0h9v1h-6l1 3 7 3 19 3h17l-18-4v-1l11 1 9 2 1 4-3 1-19-1-22-4-5-5z" fill="#373737"/>
<path transform="translate(453,1402)" d="m0 0h2l5 9v4h2l1 7-3 1-4-2-2-5z" fill="#373737"/>
<path transform="translate(1627,343)" d="m0 0 3 4 1 5h-2l1 5h2l-2 4-5 4h-2l-1-6 2-10 2-2z" fill="#E3E3E3"/>
<path transform="translate(592,608)" d="m0 0h12v1l-7 1-7 3-18 5-11 1 2-2h3v-2l22-5h4z" fill="#6A6A6A"/>
<path transform="translate(850,1104)" d="m0 0h1l1 21 4-4 2-4 5-1-1 5-10 9h-6l-2-1 1-4h4z" fill="#353535"/>
<path transform="translate(264,993)" d="m0 0 4 1 1 1v7l-3 9-3 1-2-12 1-4z" fill="#E3E3E3"/>
<path transform="translate(1045,98)" d="m0 0 2 1-11 8-17 10h-2v2l-4-1 16-12z" fill="#F4F4F4"/>
<path transform="translate(1161,40)" d="m0 0h39v1l-23 1-1 1-8 1h-15l1-3z" fill="#9E9E9E"/>
<path transform="translate(1385,45)" d="m0 0 9 3 10 6 13 11 3 4-4-2-10-7-17-11z" fill="#E3E3E3"/>
<path transform="translate(1209,371)" d="m0 0 5 2 2 8v2h-2v3l2 1-2 2-5-3-2-10z" fill="#E3E3E3"/>
<path transform="translate(1161,39)" d="m0 0h41l2 1-1 3h-27l1-2-16-1z" fill="#3A3A3A"/>
<path transform="translate(1324,1464)" d="m0 0 5 3 16 15 1 3h-3l-1-2h-3l-9-9-2-4-2-1v-2l-3-1z" fill="#E3E3E3"/>
<path transform="translate(306,1290)" d="m0 0 1 2-8 19-4 5h-2l-2 8-2-3 8-16 8-14z" fill="#171717"/>
<path transform="translate(1139,480)" d="m0 0 4 1v2l-9 4-10 4h-3l-1-4 13-5z" fill="#3A3A3A"/>
<path transform="translate(739,596)" d="m0 0h11l-4 2-5 1h-15v2l-13 2h-8v-2l2-1z" fill="#E3E3E3"/>
<path transform="translate(267,659)" d="m0 0 13 1 4 2-2 4h-10l-5-3z" fill="#E3E3E3"/>
<path transform="translate(1292,1303)" d="m0 0h2v8l-2 10-2 5-2-1v-9l1-10z" fill="#373737"/>
<path transform="translate(1362,941)" d="m0 0 2 2 1 10v15h-2l-2-5-1-13z" fill="#080808"/>
<path transform="translate(1579,225)" d="m0 0 8 1 16 4 11 3 7 4-3 1-20-6-19-6z" fill="#E3E3E3"/>
<path transform="translate(515,1560)" d="m0 0 7 5h13v-2h-2v-2l8 1 8 2v2l-5 1h-23l-6-5z" fill="#494949"/>
<path transform="translate(675,1188)" d="m0 0 2 2-35 35-2-1 19-19 2-3h2l2-4 4-4h2l2-4z" fill="#373737"/>
<path transform="translate(203,1171)" d="m0 0h3l-1 4-7 9-6 5-3-2 9-10z" fill="#EDEDED"/>
<path transform="translate(176,605)" d="m0 0 6 5 8 11v2l-5-2-6-5v-2l-3-1-1-5z" fill="#E4E4E4"/>
<path transform="translate(1305,1412)" d="m0 0 9 1-1 7-3 8-3-3-1-9-2-3z" fill="#E3E3E3"/>
<path transform="translate(470,1474)" d="m0 0 5 1 5 10 2 8-3-2v-3l-4-2-4-5z" fill="#373737"/>
<path transform="translate(1456,107)" d="m0 0h2l4 4v2l4 2v2h4l7 6 1 2h-3l3 4v9h-1l-2-9-7-8-5-6-6-5z" fill="#3F3F3F"/>
<path transform="translate(649,1070)" d="m0 0 18 7 7 5v2l-6-1-18-10z" fill="#E4E4E4"/>
<path transform="translate(1151,228)" d="m0 0 2 3-2 10-2 5-4-1-1-5 3-7h2z" fill="#E3E3E3"/>
<path transform="translate(920,1603)" d="m0 0 4 1 5 5 4 7-1 2-8-6-5-5z" fill="#E3E3E3"/>
<path transform="translate(801,1126)" d="m0 0 1 3 13 2 8-2 5 1h8l8-1v2l-3 1-32 1-7-2z" fill="#373737"/>
<path transform="translate(483,1085)" d="m0 0 3 1-10 8-8 7h-2l1-5 8-7z" fill="#E3E3E3"/>
<path transform="translate(1357,36)" d="m0 0h10l8 3 5 4-11-1-5-1v-2h-10z" fill="#E3E3E3"/>
<path transform="translate(837,576)" d="m0 0h6v1l-9 3-5 2h-6v2l-6 1 4-6 2-1z" fill="#4A4A4A"/>
<path transform="translate(1072,81)" d="m0 0h3v2l-11 7h-3l-1 3-11 6h-2l2-4 16-9z" fill="#606060"/>
<path transform="translate(1369,906)" d="m0 0 2 2h-3v2l3 1v4 3l-6 3-2 4v-8l4-10z" fill="#E3E3E3"/>
<path transform="translate(225,755)" d="m0 0 11 2 11 5v1h-10l-7-3z" fill="#E3E3E3"/>
<path transform="translate(1638,258)" d="m0 0 9 1 6 3v2l-4 1h-7l-4-4z" fill="#F2F2F2"/>
<path transform="translate(1013,449)" d="m0 0 6 1 10 9 9 7-3 1-9-6-6-6v-2l-6-2z" fill="#262626"/>
<path transform="translate(1160,1441)" d="m0 0 5 1 3 3v6l-6-1-3-3v-5z" fill="#E3E3E3"/>
<path transform="translate(1106,1125)" d="m0 0h20l-2 2-6 2h-6v-2l-17 1 3-2z" fill="#F8F8F8"/>
<path transform="translate(1346,983)" d="m0 0h1l1 10-2 3v15h-1l-2-10h-3l2-8 3-5z" fill="#373737"/>
<path transform="translate(1182,449)" d="m0 0m-1 1m-1 1m-1 1m-1 1m-1 1m-1 1m-2 1h6l-3 5-7 6-4-1 6-8z" fill="#939393"/>
<path transform="translate(425,1249)" d="m0 0 3 2-1 11-5 1-1-8z" fill="#E3E3E3"/>
<path transform="translate(1307,1153)" d="m0 0h1v23l-1 5h-2l-1-8 2-18z" fill="#E3E3E3"/>
<path transform="translate(1618,395)" d="m0 0h2l1 4-4 7-4 3v-5l-4 1 5-5z" fill="#E3E3E3"/>
<path transform="translate(488,1139)" d="m0 0 7 2v5l-2 2h-5l-3-3 2-5z" fill="#E7E7E7"/>
<path transform="translate(671,1504)" d="m0 0 4 4 3 7 3 15 1 9 1 4-2 3-4-25-5-14z" fill="#373737"/>
<path transform="translate(576,1282)" d="m0 0 1 2 2 1-1 27-2-3-1-19-2 2 1-5z" fill="#2D2D2D"/>
<path transform="translate(1451,100)" d="m0 0 5 2 14 14-1 3-7-6v-2l-4-2v-2l-4-1v-3h-2z" fill="#878787"/>
<path transform="translate(341,1523)" d="m0 0 4 2 1 2v9l-2 4-2-1z" fill="#E3E3E3"/>
<path transform="translate(1541,452)" d="m0 0 3 1-14 7-10 1-5-1v-1l16-3z" fill="#222"/>
<path transform="translate(1062,418)" d="m0 0 8 2 4 2 1 4-5 1-6-4-2-2z" fill="#E9E9E9"/>
<path transform="translate(1194,69)" d="m0 0h3l-1 4-9 9-3-2 2-4z" fill="#E6E6E6"/>
<path transform="translate(1131,1638)" d="m0 0 5 1-2 5-3 2h-6l1-5z" fill="#EFEFEF"/>
<path transform="translate(285,1445)" d="m0 0h1l1 6 1-6h1l1 18 3 12-3-3-5-17z" fill="#373737"/>
<path transform="translate(639,1225)" d="m0 0 2 1-27 27-2-2 3-1 2-4h2l1-3 8-7z" fill="#2D2D2D"/>
<path transform="translate(1167,326)" d="m0 0h2l2 10v18h-2l-1-2v-19z" fill="#111"/>
<path transform="translate(288,1470)" d="m0 0h2l7 14 1 7-5-5-5-14z" fill="#E3E3E3"/>
<path transform="translate(580,1409)" d="m0 0 3 1 4 5v2h2l2 5-1 3-6-5-4-9z" fill="#ddd"/>
<path transform="translate(279,915)" d="m0 0 5 2 2 3-1 3-6 1-3-2 1-4z" fill="#F4F4F4"/>
<path transform="translate(313,804)" d="m0 0 4 2-1 6-2 2-5-1-1-3 3-5z" fill="#E3E3E3"/>
<path transform="translate(241,759)" d="m0 0 9 2 14 5v1l-11-1-16-2 3-2h6l-5-2z" fill="#373737"/>
<path transform="translate(1207,99)" d="m0 0 4 2 1 5 3-1 3 3v4h-6l-4-7z" fill="#E3E3E3"/>
<path transform="translate(1389,1515)" d="m0 0 5 2 5 4 5 5 4 5-1 2-3-2v-2h-2v-2l-4-2-9-8z" fill="#E3E3E3"/>
<path transform="translate(707,1151)" d="m0 0h3l-1 7-4 5-7 6h-2l2-4 8-10z" fill="#111"/>
<path transform="translate(250,1074)" d="m0 0 2 1-1 6-4 5-3 1-1-3 4-8z" fill="#ddd"/>
<path transform="translate(1052,412)" d="m0 0 7 1 9 5v1h-5v3l-4-2-6-5z" fill="#494949"/>
<path transform="translate(241,764)" d="m0 0h7l6 2 2 2-7 2-10-4z" fill="#101010"/>
<path transform="translate(1080,484)" d="m0 0 7 1-1 5h-11v-2l-2-1 3-1v2h3z" fill="#E3E3E3"/>
<path transform="translate(964,1656)" d="m0 0h9l9 2v1l-11 1-4 1-3-2z" fill="#FEFEFE"/>
<path transform="translate(1240,1589)" d="m0 0 6 1 3 3v3l-8-1-2-2z" fill="#E3E3E3"/>
<path transform="translate(327,1576)" d="m0 0 3 1h-2v2h2v2l-4 1-6 1v-2h-2v-2h2v-2z" fill="#848484"/>
<path transform="translate(508,629)" d="m0 0h5l-2 1-1 3-8 3-7 1 1-2z" fill="#E3E3E3"/>
<path transform="translate(961,1653)" d="m0 0 11 1 1 2h-9l1 3 5 2v1l-8-1-1-1z" fill="#D5D5D5"/>
<path transform="translate(457,1204)" d="m0 0 4 1 1 5-6 2-2-1v-5z" fill="#DFDFDF"/>
<path transform="translate(1537,211)" d="m0 0 10 2 10 4v1l-10-1-8-3z" fill="#E3E3E3"/>
<path transform="translate(888,557)" d="m0 0m-2 1 2 1-1 2-18 7-3-1 9-5z" fill="#3E3E3E"/>
<path transform="translate(1334,1010)" d="m0 0 4 1 1 4-1 2 2 1-4 2v-2l-4-1z" fill="#FAFAFA"/>
<path transform="translate(162,596)" d="m0 0h2l6 7h5l1 5v2l-4-2-10-10z" fill="#F3F3F3"/>
<path transform="translate(1362,506)" d="m0 0 3 1 1 3v9l-1 5h-2z" fill="#111"/>
<path transform="translate(1136,483)" d="m0 0 1 2-9 5-6 1 1-4z" fill="#E3E3E3"/>
<path transform="translate(942,524)" d="m0 0m-1 1m-1 1m-2 1 2 1-7 8-12 7-2-1 10-7 8-7z" fill="#121212"/>
<path transform="translate(101,514)" d="m0 0 4 2 4 5v5l-5-3z" fill="#D3D3D3"/>
<path transform="translate(1595,423)" d="m0 0 2 1-2 4-16 8-2-1 17-11z" fill="#1C1C1C"/>
<path transform="translate(1027,103)" d="m0 0m-1 1m-1 1m-1 1m-2 1 2 1-4 6-5 5-4 2 1-4z" fill="#1E1E1E"/>
<path transform="translate(860,1116)" d="m0 0h3l-1 5-5 5h-2l1-5 2-4z" fill="#0F0F0F"/>
<path transform="translate(626,1063)" d="m0 0 8 2v1l-10 2-3 1-1 6h-1v-7l2-3z" fill="#373737"/>
<path transform="translate(226,644)" d="m0 0h6l4 3v3l-7-1-3-3z" fill="#E3E3E3"/>
<path transform="translate(52,548)" d="m0 0h3l4 7-1 2-5-1-2-6z" fill="#747474"/>
<path transform="translate(1623,351)" d="m0 0 1 2-1 12 7-5 1 2-7 5h-3l-1-4 2-11z" fill="#373737"/>
<path transform="translate(907,1541)" d="m0 0 3 3v7l-4-1-2-5z" fill="#E3E3E3"/>
<path transform="translate(194,742)" d="m0 0 7 1 3 2v2l-5 1-5-3z" fill="#E0E0E0"/>
<path transform="translate(592,608)" d="m0 0h12v1l-7 1-7 3h-6v-2l8-1z" fill="#434343"/>
<path transform="translate(1034,404)" d="m0 0 7 2 1 4h-6l-4-2 1-3z" fill="#F4F4F4"/>
<path transform="translate(943,195)" d="m0 0h2l-2 4-9 8h-2l2-4z" fill="#E3E3E3"/>
<path transform="translate(455,1411)" d="m0 0 4 1 2 3 1 6h-3v-2h-2l-2-4z" fill="#E3E3E3"/>
<path transform="translate(195,1579)" d="m0 0 2 1 13 2v1h-17l-5-2 3-1 4 1z" fill="#373737"/>
<path transform="translate(1424,1559)" d="m0 0 4 2 2 4v8l-3 1-1-10z" fill="#1A1A1A"/>
<path transform="translate(201,1171)" d="m0 0 1 2-7 8-6 5v-3z" fill="#101010"/>
<path transform="translate(98,504)" d="m0 0 4 5 5 8-1 2-3-4-4-1z" fill="#2F2F2F"/>
<path transform="translate(1150,409)" d="m0 0 2 1-12 8-8 6 2-4 8-7z" fill="#373737"/>
<path transform="translate(1633,336)" d="m0 0 3 1v11l-2 2-1-1z" fill="#0E0E0E"/>
<path transform="translate(1378,1508)" d="m0 0 5 2 8 4-2 1 2 4-4-2-9-8z" fill="#404040"/>
<path transform="translate(203,1171)" d="m0 0h3l-1 4-4 6-3-2 2-4z" fill="#E4E4E4"/>
<path transform="translate(493,1082)" d="m0 0 10 1 5 2v2l-9-1-4-2-4 1v-2z" fill="#E3E3E3"/>
<path transform="translate(71,594)" d="m0 0 3 1 4 9h-3l-4-4z" fill="#E3E3E3"/>
<path transform="translate(490,1082)" d="m0 0 3 1h3l3 3-14 1-2-3z" fill="#404040"/>
<path transform="translate(306,1290)" d="m0 0 1 2-5 13h-3v-3l6-11z" fill="#1F1F1F"/>
<path transform="translate(675,1188)" d="m0 0 2 2-11 11h-2l2-4 3-3h2l2-4z" fill="#333"/>
<path transform="translate(744,1115)" d="m0 0 9 1-4 1-1 9-2-2v-5l-4-3z" fill="#212121"/>
<path transform="translate(519,626)" d="m0 0h6l-2 2-10 4h-2v-2l-3-2z" fill="#373737"/>
<path transform="translate(913,544)" d="m0 0 3 1-19 9-1-2 12-6z" fill="#0F0F0F"/>
<path transform="translate(76,423)" d="m0 0h1v13l-5 1-4-7 1-2 4 6 2 1z" fill="#E3E3E3"/>
<path transform="translate(1375,39)" d="m0 0 6 2 4 2 1 3 4 4-5-2-7-4v-2z" fill="#454545"/>
<path transform="translate(1092,1654)" d="m0 0h10l1 3-7 1-4-1z" fill="#FEFEFE"/>
<path transform="translate(587,1276)" d="m0 0h2l-2 4-8 8-1-3 5-5z" fill="#1E1E1E"/>
<path transform="translate(116,538)" d="m0 0 5 5 8 9-2 3-4-5-3-5-4-5z" fill="#161616"/>
<path transform="translate(1211,287)" d="m0 0 2 4 1 4-2 3h-3l-1-4z" fill="#E3E3E3"/>
<path transform="translate(1025,109)" d="m0 0 2 3-8 5h-2v2l-4-1z" fill="#D8D8D8"/>
<path transform="translate(151,1508)" d="m0 0 1 4h2l1 4v4h-3l-2-5z" fill="#E3E3E3"/>
<path transform="translate(1072,81)" d="m0 0h3v2l-11 7-3-2z" fill="#373737"/>
<path transform="translate(1420,68)" d="m0 0 4 2 6 6-1 3-5-4-4-5z" fill="#707070"/>
<path transform="translate(1378,898)" d="m0 0 2 4v17l-2-4v-10l-1-1v-5z"/>
<path transform="translate(958,518)" d="m0 0 1 3-6 5-4 1 2-4z" fill="#E3E3E3"/>
<path transform="translate(332,1583)" d="m0 0h14l4 2-15 1z" fill="#333"/>
<path transform="translate(1541,452)" d="m0 0 3 1-11 6-3-1 3-3z" fill="#1A1A1A"/>
<path transform="translate(1057,1484)" d="m0 0 8 6h-3l-2-1 1 6-2-1-2-6z" fill="#373737"/>
<path transform="translate(1162,1445)" d="m0 0 5 1 1 5-5-1z" fill="#FBFBFB"/>
<path transform="translate(695,1168)" d="m0 0 2 2-9 9-2-2z" fill="#2D2D2D"/>
<path transform="translate(707,1151)" d="m0 0h3l-1 7-5 3-2 1 2-4z" fill="#222"/>
<path transform="translate(1079,1518)" d="m0 0 5 5 5 6-2 2-8-11z" fill="#2B2B2B"/>
<path transform="translate(1176,1492)" d="m0 0 4 1 3 7-4-1v-2h-2z" fill="#E3E3E3"/>
<path transform="translate(1356,640)" d="m0 0h2v13l-2-1-1-6z" fill="#E3E3E3"/>
<path transform="translate(1571,222)" d="m0 0h9v2l3 1-7 1-4-1z" fill="#555"/>
<path transform="translate(1045,98)" d="m0 0 2 1-9 7-2-1v-3z" fill="#E3E3E3"/>
<path transform="translate(1189,73)" d="m0 0 2 1-2 2v4l-3 2-2-4z" fill="#EDEDED"/>
<path transform="translate(580,1274)" d="m0 0 2 4 2 2-5 4h-2z" fill="#E3E3E3"/>
<path transform="translate(152,1233)" d="m0 0 2 1 1 6-2 2-3-5z" fill="#E3E3E3"/>
<path transform="translate(87,627)" d="m0 0 5 5 1 4-4-1-2-4z" fill="#E3E3E3"/>
<path transform="translate(1211,248)" d="m0 0 3 1 1 7h-3l-1-1z" fill="#E3E3E3"/>
<path transform="translate(471,1476)" d="m0 0 4 1 3 8-4-2z" fill="#E3E3E3"/>
<path transform="translate(1118,1125)" d="m0 0h8l-2 2-6 2h-5l1-2h4z" fill="#E4E4E4"/>
<path transform="translate(69,588)" d="m0 0 4 4 1 3h-2l-1 5-2-4z" fill="#373737"/>
</svg>
